<svg xmlns="http://www.w3.org/2000/svg" width="320" height="380" viewBox="0 0 320 380">
  <rect width="320" height="380" rx="20" fill="#fff" stroke="#e2e8f0" stroke-width="2"/>
  <text x="160" y="40" font-family="Arial, sans-serif" font-size="22" font-weight="700" fill="#0f172a" text-anchor="middle">QRIS</text>
  <g fill="#0f172a">
    <rect x="50" y="60" width="70" height="70"/><rect x="62" y="72" width="46" height="46" fill="#fff"/><rect x="74" y="84" width="22" height="22"/>
    <rect x="200" y="60" width="70" height="70"/><rect x="212" y="72" width="46" height="46" fill="#fff"/><rect x="224" y="84" width="22" height="22"/>
    <rect x="50" y="210" width="70" height="70"/><rect x="62" y="222" width="46" height="46" fill="#fff"/><rect x="74" y="234" width="22" height="22"/>
    <rect x="140" y="70" width="14" height="14"/><rect x="164" y="94" width="14" height="14"/><rect x="140" y="118" width="14" height="14"/>
    <rect x="140" y="150" width="14" height="14"/><rect x="170" y="150" width="14" height="14"/><rect x="200" y="150" width="14" height="14"/>
    <rect x="230" y="160" width="14" height="14"/><rect x="60" y="150" width="14" height="14"/><rect x="90" y="170" width="14" height="14"/>
    <rect x="150" y="190" width="14" height="14"/><rect x="180" y="210" width="14" height="14"/><rect x="210" y="200" width="14" height="14"/>
    <rect x="240" y="220" width="14" height="14"/><rect x="150" y="240" width="14" height="14"/><rect x="200" y="250" width="14" height="14"/>
    <rect x="230" y="260" width="14" height="14"/><rect x="160" y="270" width="14" height="14"/><rect x="250" y="190" width="14" height="14"/>
  </g>
  <text x="160" y="320" font-family="Arial, sans-serif" font-size="14" fill="#475569" text-anchor="middle">Brave Brawijaya (DUMMY)</text>
  <text x="160" y="345" font-family="Arial, sans-serif" font-size="12" fill="#b91c1c" text-anchor="middle">Contoh — jangan dibayar</text>
</svg>
